<?xml version="1.0" encoding="UTF-8"?>
<svg id="Layer_1" data-name="Layer 1" xmlns="http://www.w3.org/2000/svg" viewBox="0 0 441.06 120.77">
  <defs>
    <style>
      .cls-1 {
        fill: #fff;
      }

      .cls-2 {
        fill: #eb6306;
      }
    </style>
  </defs>
  <path class="cls-2" d="m3.9,70.97c2.6-4.96,6.24-8.84,10.92-11.64,4.68-2.8,10.02-4.2,16.02-4.2,3.36,0,6.58.7,9.66,2.1,3.08,1.4,5.74,3.42,7.98,6.06v-8.28h18.24v65.4l-18.24.12v-7.92c-2.24,2.56-4.92,4.54-8.04,5.94-3.12,1.4-6.32,2.1-9.6,2.1-6,0-11.34-1.4-16.02-4.2-4.68-2.8-8.32-6.68-10.92-11.64-2.6-4.96-3.9-10.6-3.9-16.92s1.3-11.96,3.9-16.92Zm36.66,32.82c2.4-1.64,4.32-3.86,5.76-6.66,1.44-2.8,2.16-5.88,2.16-9.24s-.72-6.44-2.16-9.24c-1.44-2.8-3.36-5.02-5.76-6.66-2.4-1.64-5-2.46-7.8-2.46-4.48,0-8.02,1.66-10.62,4.98-2.6,3.32-3.9,7.78-3.9,13.38s1.3,10.06,3.9,13.38c2.6,3.32,6.14,4.98,10.62,4.98,2.8,0,5.4-.82,7.8-2.46Z"/>
  <path class="cls-1" d="m102.96,102.05c2.56,2.48,6.04,3.72,10.44,3.72,4.16-.08,7.46-1.56,9.9-4.44,2.44-2.88,3.58-6.76,3.42-11.64v-34.68h18.24v65.4h-18.24v-9.24c-1.52,2.96-3.86,5.22-7.02,6.78-3.16,1.56-6.7,2.34-10.62,2.34-5.44,0-10.28-1.16-14.52-3.48-4.24-2.32-7.58-5.7-10.02-10.14-2.44-4.44-3.66-9.7-3.66-15.78v-35.88h18.24v35.88c0,4.96,1.28,8.68,3.84,11.16Z"/>
  <path class="cls-1" d="m172.74,116.33c-4.68-2.8-8.34-6.68-10.98-11.64-2.64-4.96-3.96-10.6-3.96-16.92s1.32-11.98,3.96-16.98c2.64-5,6.3-8.9,10.98-11.7,4.68-2.8,10.02-4.2,16.02-4.2,2.48,0,5.42.52,8.82,1.56,3.4,1.04,6.38,3.24,8.94,6.6V29.45h18.24v91.08h-18.24v-7.92c-2.56,2.96-5.64,5.02-9.24,6.18-3.6,1.16-6.44,1.74-8.52,1.74-6,0-11.34-1.4-16.02-4.2Zm7.2-14.64c2.6,3.28,6.1,4.92,10.5,4.92,2.96,0,5.66-.82,8.1-2.46,2.44-1.64,4.38-3.86,5.82-6.66,1.44-2.8,2.16-5.88,2.16-9.24s-.72-6.46-2.16-9.3c-1.44-2.84-3.38-5.08-5.82-6.72-2.44-1.64-5.14-2.46-8.1-2.46-4.48,0-8,1.66-10.56,4.98-2.56,3.32-3.84,7.82-3.84,13.5s1.3,10.16,3.9,13.44Z"/>
  <path class="cls-1" d="m245.1,29.57c1.8-1.76,4.06-2.64,6.78-2.64s5.08.88,6.84,2.64c1.76,1.76,2.64,4.04,2.64,6.84s-.88,4.98-2.64,6.78c-1.76,1.8-4.04,2.7-6.84,2.7s-4.98-.9-6.78-2.7c-1.8-1.8-2.7-4.06-2.7-6.78s.9-5.08,2.7-6.84Zm15.9,26.4v64.44h-18.24V55.97h18.24Z"/>
  <path class="cls-2" d="m280.08,70.97c2.72-4.96,6.5-8.84,11.34-11.64,4.84-2.8,10.38-4.2,16.62-4.2s11.78,1.4,16.62,4.2c4.84,2.8,8.62,6.68,11.34,11.64,2.72,4.96,4.08,10.64,4.08,17.04s-1.36,11.96-4.08,16.92c-2.72,4.96-6.5,8.84-11.34,11.64-4.84,2.8-10.38,4.2-16.62,4.2s-11.78-1.4-16.62-4.2c-4.84-2.8-8.62-6.68-11.34-11.64-2.72-4.96-4.08-10.6-4.08-16.92s1.36-12.08,4.08-17.04Zm38.04,30.3c2.48-3.24,3.72-7.66,3.72-13.26s-1.24-10.04-3.72-13.32c-2.48-3.28-5.84-4.92-10.08-4.92s-7.6,1.64-10.08,4.92c-2.48,3.28-3.72,7.72-3.72,13.32s1.24,10.02,3.72,13.26c2.48,3.24,5.84,4.86,10.08,4.86s7.6-1.62,10.08-4.86Z"/>
  <rect class="cls-2" x="48.48" y="9.12" width="18.24" height="40.89"/>
  <rect class="cls-2" x="276" y="9.12" width="18.24" height="40.89"/>
  <rect class="cls-2" x="162.24" y="-104.64" width="18.24" height="227.52" transform="translate(180.48 -162.24) rotate(90)"/>
  <g>
    <g>
      <rect class="cls-1" x="369.5" y="27.29" width="18.24" height="93.48"/>
      <rect class="cls-1" x="408.04" y="27.29" width="18.24" height="93.48"/>
    </g>
    <g>
      <rect class="cls-1" x="388.77" y="50.13" width="18.24" height="86.34" transform="translate(304.59 491.19) rotate(-90)"/>
      <rect class="cls-1" x="388.77" y="11.59" width="18.24" height="86.34" transform="translate(343.13 452.65) rotate(-90)"/>
    </g>
  </g>
  <circle class="cls-2" cx="57.6" cy="9.12" r="9.12"/>
  <circle class="cls-2" cx="285.12" cy="9.12" r="9.12"/>
</svg>