<?xml version="1.0" encoding="utf-8"?>
<!-- Generator: Adobe Illustrator 27.5.0, SVG Export Plug-In . SVG Version: 6.00 Build 0)  -->
<svg version="1.1" id="Layer_1" xmlns="http://www.w3.org/2000/svg" xmlns:xlink="http://www.w3.org/1999/xlink" x="0px" y="0px"
	 viewBox="0 0 453.54 127.56" style="enable-background:new 0 0 453.54 127.56;" xml:space="preserve">
<style type="text/css">
	.st0{fill:#EB6306;}
	.st1{fill:#333333;}
</style>
<path class="st0" d="M10.14,74.36c2.6-4.96,6.24-8.84,10.92-11.64c4.68-2.8,10.02-4.2,16.02-4.2c3.36,0,6.58,0.7,9.66,2.1
	c3.08,1.4,5.74,3.42,7.98,6.06V58.4h18.24v65.4l-18.24,0.12V116c-2.24,2.56-4.92,4.54-8.04,5.94c-3.12,1.4-6.32,2.1-9.6,2.1
	c-6,0-11.34-1.4-16.02-4.2c-4.68-2.8-8.32-6.68-10.92-11.64c-2.6-4.96-3.9-10.6-3.9-16.92C6.24,84.97,7.54,79.33,10.14,74.36z
	 M46.8,107.18c2.4-1.64,4.32-3.86,5.76-6.66c1.44-2.8,2.16-5.88,2.16-9.24c0-3.36-0.72-6.44-2.16-9.24
	c-1.44-2.8-3.36-5.02-5.76-6.66c-2.4-1.64-5-2.46-7.8-2.46c-4.48,0-8.02,1.66-10.62,4.98c-2.6,3.32-3.9,7.78-3.9,13.38
	c0,5.6,1.3,10.06,3.9,13.38c2.6,3.32,6.14,4.98,10.62,4.98C41.8,109.64,44.4,108.82,46.8,107.18z"/>
<path class="st1" d="M109.2,105.44c2.56,2.48,6.04,3.72,10.44,3.72c4.16-0.08,7.46-1.56,9.9-4.44c2.44-2.88,3.58-6.76,3.42-11.64
	V58.4h18.24v65.4h-18.24v-9.24c-1.52,2.96-3.86,5.22-7.02,6.78c-3.16,1.56-6.7,2.34-10.62,2.34c-5.44,0-10.28-1.16-14.52-3.48
	c-4.24-2.32-7.58-5.7-10.02-10.14c-2.44-4.44-3.66-9.7-3.66-15.78V58.4h18.24v35.88C105.36,99.25,106.64,102.97,109.2,105.44z"/>
<path class="st0" d="M286.32,74.36c2.72-4.96,6.5-8.84,11.34-11.64c4.84-2.8,10.38-4.2,16.62-4.2s11.78,1.4,16.62,4.2
	c4.84,2.8,8.62,6.68,11.34,11.64c2.72,4.96,4.08,10.64,4.08,17.04c0,6.32-1.36,11.96-4.08,16.92c-2.72,4.96-6.5,8.84-11.34,11.64
	c-4.84,2.8-10.38,4.2-16.62,4.2s-11.78-1.4-16.62-4.2c-4.84-2.8-8.62-6.68-11.34-11.64c-2.72-4.96-4.08-10.6-4.08-16.92
	C282.24,85.01,283.6,79.33,286.32,74.36z M324.36,104.66c2.48-3.24,3.72-7.66,3.72-13.26c0-5.6-1.24-10.04-3.72-13.32
	c-2.48-3.28-5.84-4.92-10.08-4.92c-4.24,0-7.6,1.64-10.08,4.92c-2.48,3.28-3.72,7.72-3.72,13.32c0,5.6,1.24,10.02,3.72,13.26
	c2.48,3.24,5.84,4.86,10.08,4.86C318.52,109.52,321.88,107.9,324.36,104.66z"/>
<g>
	<g>
		<rect x="375.74" y="30.68" class="st1" width="18.24" height="93.48"/>
		<rect x="414.28" y="30.68" class="st1" width="18.24" height="93.48"/>
	</g>
	<g>

			<rect x="395.01" y="53.52" transform="matrix(3.211127e-11 -1 1 3.211127e-11 307.4353 500.8258)" class="st1" width="18.24" height="86.34"/>

			<rect x="395.01" y="14.98" transform="matrix(3.221074e-11 -1 1 3.221074e-11 345.9765 462.2846)" class="st1" width="18.24" height="86.34"/>
	</g>
</g>
<path class="st1" d="M178.98,119.72c-4.68-2.8-8.34-6.68-10.98-11.64c-2.64-4.96-3.96-10.6-3.96-16.92c0-6.32,1.32-11.98,3.96-16.98
	c2.64-5,6.3-8.9,10.98-11.7c4.68-2.8,10.02-4.2,16.02-4.2c2.48,0,5.42,0.52,8.82,1.56c3.4,1.04,6.38,3.24,8.94,6.6v-33.6H231v91.08
	h-18.24V116c-2.56,2.96-5.64,5.02-9.24,6.18c-3.6,1.16-6.44,1.74-8.52,1.74C189,123.92,183.66,122.52,178.98,119.72z M186.18,105.08
	c2.6,3.28,6.1,4.92,10.5,4.92c2.96,0,5.66-0.82,8.1-2.46c2.44-1.64,4.38-3.86,5.82-6.66c1.44-2.8,2.16-5.88,2.16-9.24
	c0-3.36-0.72-6.46-2.16-9.3c-1.44-2.84-3.38-5.08-5.82-6.72c-2.44-1.64-5.14-2.46-8.1-2.46c-4.48,0-8,1.66-10.56,4.98
	c-2.56,3.32-3.84,7.82-3.84,13.5C182.28,97.33,183.58,101.81,186.18,105.08z"/>
<path class="st1" d="M251.34,32.96c1.8-1.76,4.06-2.64,6.78-2.64c2.8,0,5.08,0.88,6.84,2.64c1.76,1.76,2.64,4.04,2.64,6.84
	c0,2.72-0.88,4.98-2.64,6.78c-1.76,1.8-4.04,2.7-6.84,2.7c-2.72,0-4.98-0.9-6.78-2.7c-1.8-1.8-2.7-4.06-2.7-6.78
	C248.64,37,249.54,34.72,251.34,32.96z M267.24,59.36v64.44H249V59.36H267.24z"/>
<path class="st0" d="M300.48,12.51c0-5.04-4.08-9.12-9.12-9.12c0,0,0,0-0.01,0H63.85c0,0,0,0-0.01,0c-5.04,0-9.12,4.08-9.12,9.12
	c0,0,0,0,0,0.01V53.4h18.24V21.63h209.28V53.4h18.24L300.48,12.51C300.48,12.52,300.48,12.52,300.48,12.51z"/>
</svg>
